:SAMPLES-PER-SECOND 30
:FRAME-RANGE 1-1390
:FULLY-SPECIFIED
:DEGREES
348
root  -15.9089 34.7491 -40.3151 -4.78725 -27.8994 0.83955
RightUpLeg  -83.2753 -13.6365 62.2473
RightLeg  126.641 9.30834 -10.8469
RightFoot  -18.308 -0.145138 -0.349686
RightToes  6.35937e-011 1.2921e-014 -6.02303e-014
Spine  16.0169 -1.63682 7.96966
Spine1  -2.02549 2.50406 -7.84224
HEad  42.2897 7.93665 -0.160524
LeftShoulder1  2.96906 -7.98935 -20.0958
LeftArm  41.6689 -23.6837 -66.1556
LeftForeArm  27.9963 -2.39852 -18.2083
LeftHand  -0.00595221 6.59854 2.57248
RightShoulder  2.19643 6.25853 16.3764
RightArm  2.83282 37.429 84.2909
RightForeArm  103.044 -4.79322 9.39274
RightHand  0.50944 -14.8889 -6.94812
LeftUpLeg  -17.085 -10.9472 -16.8111
LeftLeg  52.6723 7.11193 10.3754
LeftFoot  -27.7312 1.52826 9.42594
LeftToes  4.52251e-011 4.07896e-011 -5.42348e-012
349
root  -15.7715 34.9927 -40.3964 -4.69563 -23.8916 0.105945
RightUpLeg  -84.1748 -13.0208 61.7139
RightLeg  127.929 7.72908 -8.53851
RightFoot  -15.5822 -0.12268 -0.466548
RightToes  6.35937e-011 1.2921e-014 -6.02303e-014
Spine  15.0363 -1.9625 7.55684
Spine1  -2.07954 1.87815 -7.11416
HEad  42.2526 7.9377 0.703807
LeftShoulder1  2.96857 -7.92845 -20.2441
LeftArm  45.4223 -22.3001 -65.8517
LeftForeArm  23.2022 -3.43419 -18.2885
LeftHand  -0.00194721 6.69019 2.76762
RightShoulder  2.18992 6.15108 16.5849
RightArm  2.62387 36.7007 84.2696
RightForeArm  103.299 -4.76506 9.29028
RightHand  0.463215 -14.6082 -6.582
LeftUpLeg  -15.9112 -13.665 -16.6692
LeftLeg  51.3402 6.58448 9.21685
LeftFoot  -26.4175 1.51778 10.2347
LeftToes  4.52251e-011 4.07896e-011 -5.42348e-012
350
root  -15.5708 35.7744 -40.3809 -4.35988 -20.5987 -1.26805
RightUpLeg  -83.6518 -12.5101 61.3502
RightLeg  128.185 5.79156 -6.21749
RightFoot  -16.6587 -0.136655 -0.516241
RightToes  6.35937e-011 1.2921e-014 -6.02303e-014
Spine  14.3301 -1.93752 7.9025
Spine1  -2.08714 1.73955 -6.35423
HEad  40.9147 6.44093 0.999837
LeftShoulder1  3.11762 -8.34413 -20.6042
LeftArm  36.622 -23.1478 -66.4108
LeftForeArm  32.4828 -1.20795 -18.0852
LeftHand  0.00760732 7.35156 2.60867
RightShoulder  2.1433 6.07744 16.2391
RightArm  4.34885 36.5749 84.3448
RightForeArm  103.447 -4.91413 10.2856
RightHand  0.467945 -14.6057 -6.64075
LeftUpLeg  -13.2279 -15.9448 -15.6987
LeftLeg  46.6514 6.28834 7.51923
LeftFoot  -23.3553 1.31721 11.1402
LeftToes  4.52251e-011 4.07896e-011 -5.42348e-012
351
root  -15.3354 36.9463 -40.3648 -3.445 -18.0557 -2.71082
RightUpLeg  -83.2116 -11.4125 62.1901
RightLeg  127.449 6.07605 -6.72968
RightFoot  -18.8908 -0.104307 0.356535
RightToes  6.35937e-011 1.2921e-014 -6.02303e-014
Spine  13.5135 -1.83071 8.7579
Spine1  -2.19255 1.83116 -6.17256
HEad  39.0952 5.18305 1.02215
LeftShoulder1  3.19751 -8.72051 -20.4179
LeftArm  31.8463 -23.7223 -66.6928
LeftForeArm  36.9653 -0.0741566 -17.8797
LeftHand  0.00815695 7.56104 2.45434
RightShoulder  2.10517 6.19548 15.4895
RightArm  4.134 37.127 85.8288
RightForeArm  104.294 -4.80233 9.82589
RightHand  0.424907 -14.3809 -6.2577
LeftUpLeg  -10.1257 -17.0028 -13.9427
LeftLeg  38.9486 5.14824 4.83689
LeftFoot  -18.4427 0.869286 12.1666
LeftToes  4.52251e-011 4.07896e-011 -5.42348e-012
352
root  -15.1285 38.1975 -40.4438 -2.59352 -14.2465 -3.64081
RightUpLeg  -84.8273 -10.5407 63.2172
RightLeg  126.579 6.83778 -7.88445
RightFoot  -18.4984 -0.0637216 0.983013
RightToes  6.35937e-011 1.2921e-014 -6.02303e-014
Spine  13.7999 -2.11407 8.58023
Spine1  -3.36044 1.40362 -5.42393
HEad  36.7928 4.02777 0.753122
LeftShoulder1  3.28831 -9.17978 -20.1477
LeftArm  34.6384 -23.241 -66.4704
LeftForeArm  33.1215 -0.770417 -18.0601
LeftHand  0.0113691 7.51558 2.65414
RightShoulder  2.04824 6.21726 14.7766
RightArm  5.00274 37.7073 86.7745
RightForeArm  104.323 -4.82638 9.98835
RightHand  0.357581 -14.4114 -5.40691
LeftUpLeg  -7.53028 -17.0302 -11.9589
LeftLeg  31.1666 0.675212 0.80052
LeftFoot  -11.514 0.0881758 12.3436
LeftToes  4.52251e-011 4.07896e-011 -5.42348e-012
353
root  -14.9506 39.2796 -40.6144 -1.97064 -8.72045 -4.05006
RightUpLeg  -87.5666 -10.2309 62.9655
RightLeg  125.899 5.49048 -6.39049
RightFoot  -18.3122 0.0131213 2.25109
RightToes  6.35937e-011 1.2921e-014 -6.02303e-014
Spine  14.3473 -2.76208 7.2528
Spine1  -4.18239 0.410879 -3.87843
HEad  34.3393 2.70725 0.323761
LeftShoulder1  3.44096 -9.89854 -19.8474
LeftArm  34.1133 -23.5686 -66.6344
LeftForeArm  33.2972 -0.545165 -18.0491
LeftHand  -0.0050541 7.16951 2.04072
RightShoulder  1.93671 5.98926 14.0318
RightArm  6.79028 38.0998 86.3667
RightForeArm  101.441 -5.11579 10.975
RightHand  0.285624 -14.2936 -4.56881
LeftUpLeg  -6.65878 -15.65 -9.56126
LeftLeg  26.4853 -8.70164 -4.35038
LeftFoot  -5.12251 -0.31404 6.34337
LeftToes  4.52251e-011 4.07896e-011 -5.42348e-012
354
root  -14.8164 39.9528 -40.7747 -1.43465 -3.51606 -4.33601
RightUpLeg  -89.5245 -10.143 62.4475
RightLeg  125.006 3.03755 -3.38747
RightFoot  -19.0184 0.125635 3.79209
RightToes  6.35937e-011 1.2921e-014 -6.02303e-014
Spine  14.6293 -3.16447 5.7436
Spine1  -4.29332 -0.347829 -2.57033
HEad  32.539 1.25713 0.332121
LeftShoulder1  3.57734 -10.5823 -19.5207
LeftArm  28.1423 -24.8479 -66.9032
LeftForeArm  38.931 1.07312 -17.69
LeftHand  -0.00151706 7.41637 2.06512
RightShoulder  1.82457 5.5172 13.8512
RightArm  8.04973 38.6469 85.5931
RightForeArm  98.4778 -4.61804 11.7072
RightHand  0.225355 -13.9724 -3.93268
LeftUpLeg  -7.73195 -13.6471 -6.12604
LeftLeg  26.5045 -17.4655 -8.93149
LeftFoot  -8.01129 0.502057 -15.5472
LeftToes  4.52251e-011 4.07896e-011 -5.42348e-012
355
root  -14.6634 40.2473 -40.8767 -1.65124 0.150144 -4.33139
RightUpLeg  -89.5881 -10.4735 61.4017
RightLeg  123.897 0.938665 -0.646346
RightFoot  -19.7539 0.239804 5.07907
RightToes  6.35937e-011 1.2921e-014 -6.02303e-014
Spine  15.8589 -3.25789 4.65569
Spine1  -4.90155 -0.497822 -2.60761
HEad  32.0093 0.145753 0.891897
LeftShoulder1  3.58191 -10.6934 -19.3353
LeftArm  26.5641 -26.0776 -66.9216
LeftForeArm  41.1421 1.46048 -17.5396
LeftHand  -0.00453668 7.61533 1.79635
RightShoulder  1.80699 5.42126 13.8781
RightArm  8.35727 38.8027 85.3591
RightForeArm  98.0451 -3.8672 11.9055
RightHand  0.205048 -14.0424 -3.64407
LeftUpLeg  -9.27708 -12.9755 -4.35522
LeftLeg  30.4709 -17.5438 -10.526
LeftFoot  -13.7976 -0.23312 -14.6457
LeftToes  4.52251e-011 4.07896e-011 -5.42348e-012
356
root  -14.5178 40.1571 -40.9182 -1.91139 2.8362 -4.13543
RightUpLeg  -88.8185 -10.857 60.902
RightLeg  122.678 0.518517 -0.0843223
RightFoot  -19.7875 0.280273 5.60939
RightToes  6.35937e-011 1.2921e-014 -6.02303e-014
Spine  16.8427 -3.03254 3.68145
Spine1  -5.27368 -0.306866 -3.06255
HEad  32.5206 0.0962486 1.21351
LeftShoulder1  3.49901 -10.4188 -19.2375
LeftArm  24.55 -26.7391 -66.5584
LeftForeArm  43.5806 1.96067 -17.3443
LeftHand  -0.000436345 7.91607 1.83915
RightShoulder  1.86266 5.61957 14.0625
RightArm  10.0552 38.6268 85.5587
RightForeArm  98.0931 -3.59475 12.5716
RightHand  0.209398 -14.9453 -3.40982
LeftUpLeg  -11.0135 -13.0713 -3.16419
LeftLeg  34.2431 -7.75477 -5.2832
LeftFoot  -17.8887 -0.4647 -9.9748
LeftToes  4.52251e-011 4.07896e-011 -5.42348e-012
357
root  -14.2938 39.6745 -40.8551 -1.64849 4.95154 -4.11899
RightUpLeg  -87.6264 -11.0172 61.0992
RightLeg  121.853 1.03814 -0.872694
RightFoot  -21.0756 0.343844 5.71302
RightToes  6.35937e-011 1.2921e-014 -6.02303e-014
Spine  16.9115 -2.69537 3.59537
Spine1  -5.33408 0.204189 -4.12531
HEad  32.8266 0.0101879 1.33747
LeftShoulder1  3.38906 -9.90606 -19.4088
LeftArm  22.7909 -27.1647 -66.0873
LeftForeArm  46.2325 2.3813 -17.1367
LeftHand  -0.00293582 7.95611 1.7152
RightShoulder  1.9272 5.77678 14.4506
RightArm  11.2878 37.9105 85.8579
RightForeArm  99.294 -3.76569 12.9485
RightHand  0.319482 -15.7768 -4.36895
LeftUpLeg  -12.8846 -14.0282 -2.01949
LeftLeg  37.4195 4.32979 3.93165
LeftFoot  -17.7241 -0.174101 -5.02453
LeftToes  4.52251e-011 4.07896e-011 -5.42348e-012
